Coordinates
version=1
nRows=8
nColumns=40
inDegrees=yes

Units are S.I. units (second, meters, Newtons, ...)
Angles are in degrees.

endheader
time	pelvis_tilt	pelvis_list	pelvis_rotation	pelvis_tx	pelvis_ty	pelvis_tz	hip_flexion_r	hip_adduction_r	hip_rotation_r	knee_angle_r	knee_angle_r_beta	ankle_angle_r	subtalar_angle_r	mtp_angle_r	hip_flexion_l	hip_adduction_l	hip_rotation_l	knee_angle_l	knee_angle_l_beta	ankle_angle_l	subtalar_angle_l	mtp_angle_l	lumbar_extension	lumbar_bending	lumbar_rotation	arm_flex_r	arm_add_r	arm_rot_r	elbow_flex_r	pro_sup_r	wrist_flex_r	wrist_dev_r	arm_flex_l	arm_add_l	arm_rot_l	elbow_flex_l	pro_sup_l	wrist_flex_l	wrist_dev_l
     38.12750000	     -4.78129360	     -5.50831643	     -4.18868987	      0.94549736	      0.92439348	      0.50371197	     18.60157905	      2.19865173	     -7.78780360	     21.01102402	     21.01102402	      8.21936491	     -1.58881364	     -3.34475515	      0.19070129	    -11.54274367	     -9.42080685	     24.76160983	     24.76160983	     18.71293729	     -6.21582806	     -2.62751396	     -7.73875054	      7.17421845	      2.07645716	     -4.48166903	    -13.95708588	    -11.69048743	     25.85755583	     45.88856932	      0.00000000	      0.00000000	     23.62397840	    -15.86570131	    -11.32495189	     68.73158627	     47.22841390	      0.00000000	      0.00000000
     38.14485714	     -4.74600541	     -5.59061110	     -3.90516000	      0.94667114	      0.92499513	      0.50833499	     17.97897444	      2.50845394	     -8.19374078	     20.85166243	     20.85166243	      8.85864730	     -1.23531634	     -2.77458001	      0.94762745	    -12.19281626	     -8.85788884	     26.70772447	     26.70772447	     16.95495445	     -7.33897490	     -5.51709393	     -7.73725521	      7.16696992	      2.15622235	     -2.50116608	    -14.05823268	    -11.51166337	     24.52515616	     46.00096663	      0.00000000	      0.00000000	     22.87812028	    -15.45268404	    -10.86048508	     66.58463065	     47.17855647	      0.00000000	      0.00000000
     38.16221429	     -4.69132109	     -5.72862392	     -3.62513640	      0.94754194	      0.92551028	      0.51294216	     17.30714991	      2.90506021	     -8.55101706	     20.57404220	     20.57404220	      9.20370203	     -1.08100088	     -2.79500063	      2.03397011	    -12.95258924	     -8.22200932	     29.30624831	     29.30624831	     15.96453535	     -8.16569503	     -6.16353176	     -7.90184860	      7.14875696	      2.21856944	     -1.12155314	    -14.16418883	    -11.51308430	     24.96916490	     46.00174187	      0.00000000	      0.00000000	     21.71532244	    -14.92333108	    -10.56300530	     65.59320185	     47.13580300	      0.00000000	      0.00000000
     38.17957143	     -4.73853193	     -5.74807411	     -3.34967863	      0.94818824	      0.92581891	      0.51725141	     16.83011330	      3.14787764	     -8.91875805	     20.42731944	     20.42731944	      9.67497793	     -0.80217952	     -2.64338695	      3.24764624	    -13.46088723	     -7.31206635	     31.66218639	     31.66218639	     13.24137609	    -10.27714448	    -10.01957571	     -7.79692245	      7.05805766	      2.17446998	      0.78188261	    -14.20249532	    -11.26800339	     24.32558874	     46.08314467	      0.00000000	      0.00000000	     21.00125577	    -14.38501086	    -10.23161473	     62.43305987	     47.08183019	      0.00000000	      0.00000000
     38.19692857	     -4.77332568	     -5.79346616	     -3.11421655	      0.94862052	      0.92596449	      0.52151795	     16.35160450	      3.45332183	     -9.15538251	     20.24902167	     20.24902167	     10.04722732	     -0.77062799	     -2.67842092	      4.78962897	    -14.05639212	     -6.49953976	     34.73310203	     34.73310203	     11.78711115	    -11.46737826	    -10.63332761	     -7.85206404	      6.97984059	      2.11774002	      2.49475254	    -14.21285513	    -11.25891157	     25.00677085	     46.07835295	      0.00000000	      0.00000000	     19.56973710	    -13.95620513	     -9.92892062	     60.94271396	     47.02991941	      0.00000000	      0.00000000
     38.21428571	     -4.72147975	     -5.79283757	     -2.89025182	      0.94872606	      0.92607260	      0.52553382	     15.95134523	      3.67421062	     -9.29775461	     20.35719619	     20.35719619	     10.45419138	     -0.78579655	     -2.66432780	      6.37910307	    -14.44063084	     -5.37165929	     37.89014240	     37.89014240	      9.80602231	    -13.35146246	    -11.48679345	     -7.97309155	      6.81121791	      1.91807185	      4.47174811	    -14.19310297	    -11.13267764	     25.46354085	     46.08347098	      0.00000000	      0.00000000	     18.51335117	    -13.54777518	     -9.66290797	     58.29619792	     46.97074974	      0.00000000	      0.00000000
     38.23164286	     -4.66645001	     -5.83352995	     -2.65742852	      0.94867292	      0.92600689	      0.52929831	     15.57458395	      3.92606502	     -9.44974478	     20.49320156	     20.49320156	     10.98296666	     -0.82846662	     -2.39638768	      8.11869367	    -14.84266681	     -4.29532250	     41.22678333	     41.22678333	      7.69280534	    -15.11083885	    -12.15382710	     -8.10984847	      6.71333226	      2.18668677	      6.27192314	    -14.27230457	    -10.90594488	     25.60139763	     46.11107570	      0.00000000	      0.00000000	     17.91607072	    -12.71030256	     -9.38703712	     54.83918451	     46.91040686	      0.00000000	      0.00000000
     38.24900000	     -4.61513527	     -5.90145040	     -2.39693219	      0.94840055	      0.92561031	      0.53282499	     15.29654114	      4.19795526	     -9.53288051	     20.76212717	     20.76212717	     11.41977680	     -1.09587416	     -2.45196019	     10.07852360	    -15.23467159	     -3.19063111	     44.85023611	     44.85023611	      6.00241194	    -16.40896346	    -11.67504218	     -8.27934298	      6.62845559	      2.08390259	      8.15500388	    -14.26586122	    -10.90487507	     26.46339859	     46.09647815	      0.00000000	      0.00000000	     16.47082478	    -12.20685012	     -9.09123534	     53.06949549	     46.85250643	      0.00000000	      0.00000000
